HIERARCHY
ROOT Pelvis
{
	OFFSET 0.000000 0.000000 0.000000
	CHANNELS 6 Xposition Yposition Zposition Xrotation Yrotation Zrotation
	JOINT LeftUpLeg_virtual
	{
		OFFSET 0.000000 0.000000 0.000000
		CHANNELS 3 Xrotation Yrotation Zrotation
		JOINT LeftUpLeg
		{
			OFFSET 18.735201 -5.666702 -4.541200
			CHANNELS 3 Xrotation Yrotation Zrotation
			JOINT LeftLeg
			{
				OFFSET -0.021200 -31.938179 0.493100
				CHANNELS 3 Xrotation Yrotation Zrotation
				JOINT LeftFoot
				{
					OFFSET 0.021200 -31.938179 -4.336299
					CHANNELS 3 Xrotation Yrotation Zrotation
					JOINT LeftToeBase
					{
						OFFSET 0.943001 -26.722000 15.023500
						CHANNELS 3 Xrotation Yrotation Zrotation
						End Site
						{
							OFFSET 0 0 0
						}
					}
				}
			}
		}
	}
	JOINT RightUpLeg_virtual
	{
		OFFSET 0.000000 0.000000 0.000000
		CHANNELS 3 Xrotation Yrotation Zrotation
		JOINT RightUpLeg
		{
			OFFSET -18.735201 -5.666702 -4.541200
			CHANNELS 3 Xrotation Yrotation Zrotation
			JOINT RightLeg
			{
				OFFSET 0.018946 -31.938133 0.493100
				CHANNELS 3 Xrotation Yrotation Zrotation
				JOINT RightFoot
				{
					OFFSET -0.018946 -31.938126 -4.336299
					CHANNELS 3 Xrotation Yrotation Zrotation
					JOINT RightToeBase
					{
						OFFSET -0.943001 -26.722004 15.023500
						CHANNELS 3 Xrotation Yrotation Zrotation
						End Site
						{
							OFFSET 0 0 0
						}
					}
				}
			}
		}
	}
	JOINT Hips_virtual
	{
		OFFSET 0.000000 0.000000 0.000000
		CHANNELS 3 Xrotation Yrotation Zrotation
		JOINT Hips
		{
			OFFSET -0.000000 -0.000000 -0.000000
			CHANNELS 3 Xrotation Yrotation Zrotation
			JOINT Spine
			{
				OFFSET 0.000000 10.199997 -0.299500
				CHANNELS 3 Xrotation Yrotation Zrotation
				JOINT Spine1
				{
					OFFSET 0.000000 11.900002 -1.516600
					CHANNELS 3 Xrotation Yrotation Zrotation
					JOINT Spine2
					{
						OFFSET 0.000000 13.600006 -2.842500
						CHANNELS 3 Xrotation Yrotation Zrotation
						JOINT Neck_virtual
						{
							OFFSET 0.000000 0.000000 0.000000
							CHANNELS 3 Xrotation Yrotation Zrotation
							JOINT Neck
							{
								OFFSET 0.000000 9.624100 -2.890100
								CHANNELS 3 Xrotation Yrotation Zrotation
								JOINT Head
								{
									OFFSET 0.000000 14.068802 -1.351900
									CHANNELS 3 Xrotation Yrotation Zrotation
									End Site
									{
										OFFSET 0 0 0
									}
								}
							}
						}
						JOINT LeftShoulder_virtual
						{
							OFFSET 0.000000 0.000000 0.000000
							CHANNELS 3 Xrotation Yrotation Zrotation
							JOINT LeftShoulder
							{
								OFFSET 15.263000 10.923401 -0.547700
								CHANNELS 3 Xrotation Yrotation Zrotation
								JOINT LeftArm
								{
									OFFSET 25.438599 -2.830597 -13.032500
									CHANNELS 3 Xrotation Yrotation Zrotation
									JOINT LeftForeArm
									{
										OFFSET 29.960503 0.000000 0.000000
										CHANNELS 3 Xrotation Yrotation Zrotation
										JOINT LeftHand
										{
											OFFSET 27.849251 0.000000 0.000000
											CHANNELS 3 Xrotation Yrotation Zrotation
											End Site
											{
												OFFSET 0 0 0
											}
										}
									}
								}
							}
						}
						JOINT RightShoulder_virtual
						{
							OFFSET 0.000000 0.000000 0.000000
							CHANNELS 3 Xrotation Yrotation Zrotation
							JOINT RightShoulder
							{
								OFFSET -15.263000 10.923401 -0.547700
								CHANNELS 3 Xrotation Yrotation Zrotation
								JOINT RightArm
								{
									OFFSET -25.438599 -2.830597 -13.032500
									CHANNELS 3 Xrotation Yrotation Zrotation
									JOINT RightForeArm
									{
										OFFSET -29.960503 0.000000 0.000000
										CHANNELS 3 Xrotation Yrotation Zrotation
										JOINT RightHand
										{
											OFFSET -27.849251 0.000000 0.000000
											CHANNELS 3 Xrotation Yrotation Zrotation
											End Site
											{
												OFFSET 0 0 0
											}
										}
									}
								}
							}
						}
					}
				}
			}
		}
	}
}
MOTION
Frames: 6
Frame Time: 0.03333333
1.920239 10.801851 0.481517 0.000000 0.000000 0.000000 44.554574 -11.609664 3.318125 15.560248 16.000092 12.190555 69.426578 17.996816 -10.897511 5.905777 20.977512 -4.445779 0.000000 0.000000 0.000000 38.627431 1.575682 -0.134874 22.927852 -10.511339 -12.380437 65.556033 -16.088365 9.543119 5.382256 -22.032636 11.929659 0.000000 0.000000 0.000000 22.185028 7.926986 -1.167076 78.936537 4.223062 4.885305 5.391514 -0.547894 -0.725016 1.951648 0.366351 -0.336357 0.000000 0.000000 0.000000 -0.294351 -2.869330 1.209335 -2.144828 -2.847392 1.383848 0.000000 0.000000 0.000000 3.853281 -0.175297 -0.117733 1.586923 -14.195526 -1.916189 7.936528 -5.342445 -53.458617 6.905602 -33.924303 -2.584206 0.000000 0.000000 0.000000 2.246621 0.992103 0.404823 -0.893870 8.407264 7.550960 2.894155 0.706183 41.830496 2.925746 24.358743 4.164124 0.000000 0.000000 0.000000 
1.815554 10.667831 0.462757 0.000000 0.000000 0.000000 44.658611 -11.526340 3.293082 15.748529 16.036487 12.155922 69.240469 18.175007 -10.891078 5.668755 21.105577 -4.303372 0.000000 0.000000 0.000000 38.834229 1.705297 -0.083476 23.250193 -10.488497 -12.243466 65.589275 -16.204789 9.687972 5.314408 -22.187870 12.012169 0.000000 0.000000 0.000000 22.260200 7.909713 -1.172063 78.682051 4.113262 5.113310 5.209424 -0.589141 -0.747402 1.860270 0.362213 -0.338764 0.000000 0.000000 0.000000 -0.240802 -2.898085 1.212452 -2.124554 -2.897371 1.393037 0.000000 0.000000 0.000000 3.872618 -0.174778 -0.096229 1.624535 -14.359122 -1.790185 7.793123 -5.161489 -53.566110 6.833194 -33.922975 -2.627630 0.000000 0.000000 0.000000 2.285528 1.051825 0.373531 -0.842188 8.494273 7.512920 2.883758 0.819763 41.895574 2.953567 24.213941 4.227102 0.000000 0.000000 0.000000 
1.629263 10.417077 0.431105 0.000000 0.000000 0.000000 44.865802 -11.367477 3.235767 16.110089 16.108675 12.080284 68.891829 18.490917 -10.860843 5.239245 21.322944 -4.031199 0.000000 0.000000 0.000000 39.234031 1.969566 0.017707 23.861800 -10.438858 -11.975786 65.661887 -16.412277 9.947599 5.192492 -22.461120 12.155526 0.000000 0.000000 0.000000 22.412325 7.878646 -1.173308 78.180736 3.897906 5.518432 4.870749 -0.663685 -0.786826 1.696700 0.350951 -0.345648 0.000000 0.000000 0.000000 -0.136726 -2.946001 1.217186 -2.085653 -2.989050 1.409056 0.000000 0.000000 0.000000 3.902931 -0.176490 -0.061807 1.686975 -14.672349 -1.571708 7.546773 -4.831200 -53.756457 6.695637 -33.945562 -2.711094 0.000000 0.000000 0.000000 2.363310 1.159597 0.317118 -0.744712 8.641126 7.443906 2.870709 1.044082 42.026670 3.013355 23.943472 4.349432 0.000000 0.000000 0.000000 
1.400056 10.083598 0.396164 0.000000 0.000000 0.000000 45.165982 -11.152879 3.138434 16.609685 16.211611 11.956724 68.424753 18.878382 -10.783212 4.691090 21.569092 -3.654545 0.000000 0.000000 0.000000 39.795602 2.363760 0.165833 24.698213 -10.358970 -11.592415 65.778430 -16.671776 10.271258 5.036549 -22.794389 12.321483 0.000000 0.000000 0.000000 22.645335 7.849557 -1.157927 77.457303 3.595415 6.021269 4.420906 -0.757028 -0.834621 1.491956 0.328795 -0.359667 0.000000 0.000000 0.000000 0.011796 -2.997260 1.221311 -2.031705 -3.108168 1.428193 0.000000 0.000000 0.000000 3.931681 -0.183999 -0.027734 1.754455 -15.107902 -1.315142 7.257095 -4.399275 -53.987769 6.503129 -34.026066 -2.827935 0.000000 0.000000 0.000000 2.478375 1.296543 0.245816 -0.611903 8.805173 7.356801 2.863722 1.374275 42.222713 3.107425 23.585745 4.523959 0.000000 0.000000 0.000000 
1.170871 9.714829 0.368952 0.000000 0.000000 0.000000 45.530051 -10.914927 3.002047 17.187790 16.332502 11.787191 67.897333 19.267965 -10.643434 4.104843 21.785875 -3.209572 0.000000 0.000000 0.000000 40.467174 2.855916 0.356935 25.668517 -10.251811 -11.120285 65.932185 -16.946717 10.601926 4.862937 -23.131517 12.463941 0.000000 0.000000 0.000000 22.964290 7.857569 -1.115431 76.563928 3.247836 6.544565 3.916450 -0.850872 -0.881938 1.278545 0.294193 -0.382159 0.000000 0.000000 0.000000 0.196171 -3.035207 1.222953 -1.968100 -3.238117 1.446804 0.000000 0.000000 0.000000 3.948482 -0.199058 -0.006374 1.808666 -15.626324 -1.076895 6.975064 -3.909806 -54.212048 6.264240 -34.184789 -2.968343 0.000000 0.000000 0.000000 2.625602 1.442940 0.170709 -0.456598 8.944922 7.267460 2.865707 1.803411 42.476728 3.230028 23.195886 4.739818 0.000000 0.000000 0.000000 
0.978491 9.363348 0.361046 0.000000 0.000000 0.000000 45.908068 -10.690016 2.842749 17.765652 16.452486 11.590937 67.371743 19.606645 -10.445294 3.548237 21.936003 -2.738588 0.000000 0.000000 0.000000 41.179409 3.381794 0.584994 26.666114 -10.130100 -10.599115 66.100754 -17.214230 10.889574 4.678203 -23.434509 12.539173 0.000000 0.000000 0.000000 23.370894 7.951681 -1.042771 75.581466 2.919056 7.036686 3.415462 -0.926914 -0.922677 1.082292 0.249615 -0.412056 0.000000 0.000000 0.000000 0.406463 -3.047738 1.221369 -1.900980 -3.363598 1.462423 0.000000 0.000000 0.000000 3.950448 -0.219961 -0.004955 1.839711 -16.179188 -0.899360 6.725225 -3.392397 -54.386542 5.985113 -34.413782 -3.119999 0.000000 0.000000 0.000000 2.795093 1.583118 0.100734 -0.291637 9.032459 7.190447 2.874057 2.319684 42.773117 3.366782 22.836521 4.982059 0.000000 0.000000 0.000000 
